<svg width="48" height="48" viewBox="0 0 48 48" xmlns="http://www.w3.org/2000/svg">
  <defs>
    <linearGradient id="gradient" x1="0%" y1="0%" x2="100%" y2="100%">
      <stop offset="0%" style="stop-color:#FF6B35;stop-opacity:1" />
      <stop offset="100%" style="stop-color:#F7931E;stop-opacity:1" />
    </linearGradient>
  </defs>
  
  <!-- Background circle -->
  <circle cx="24" cy="24" r="22" fill="url(#gradient)" stroke="#fff" stroke-width="2"/>
  
  <!-- Sound waves -->
  <g fill="#fff" opacity="0.9">
    <!-- Central bars (representing sound waves) -->
    <rect x="20" y="14" width="2" height="20" rx="1"/>
    <rect x="23" y="10" width="2" height="28" rx="1"/>
    <rect x="26" y="16" width="2" height="16" rx="1"/>
    <rect x="29" y="12" width="2" height="24" rx="1"/>
    
    <!-- Side bars -->
    <rect x="17" y="18" width="2" height="12" rx="1"/>
    <rect x="14" y="20" width="2" height="8" rx="1"/>
    <rect x="32" y="18" width="2" height="12" rx="1"/>
    <rect x="35" y="20" width="2" height="8" rx="1"/>
  </g>
  
  <!-- Effect symbol (small star/sparkle) -->
  <g fill="#fff" opacity="0.7">
    <circle cx="12" cy="12" r="1"/>
    <circle cx="36" cy="36" r="1"/>
    <circle cx="36" cy="12" r="0.5"/>
    <circle cx="12" cy="36" r="0.5"/>
  </g>
</svg>